<?xml version="1.0" standalone="no"?>
<!DOCTYPE svg PUBLIC "-//W3C//DTD SVG 20010904//EN"
 "http://www.w3.org/TR/2001/REC-SVG-20010904/DTD/svg10.dtd">
<svg version="1.0" xmlns="http://www.w3.org/2000/svg"
 width="187.000000pt" height="187.000000pt" viewBox="0 0 187.000000 187.000000"
 preserveAspectRatio="xMidYMid meet">
<metadata>
Created by potrace 1.11, written by Peter Selinger 2001-2013
</metadata>
<g transform="translate(0.000000,187.000000) scale(0.100000,-0.100000)"
fill="#000000" stroke="none">
<path d="M776 1854 c-108 -19 -216 -58 -303 -110 -118 -70 -163 -110 -288
-257 -39 -45 -102 -173 -131 -266 -44 -137 -51 -326 -19 -471 18 -78 78 -233
101 -261 8 -8 14 -20 14 -26 0 -5 9 -18 20 -28 11 -10 20 -22 20 -27 0 -21
125 -146 205 -203 123 -88 313 -161 438 -166 26 -2 47 -7 47 -13 0 -6 4 -6 11
1 8 8 20 8 34 3 13 -5 25 -6 28 -4 3 3 29 8 58 10 125 12 278 59 361 111 21
12 41 23 46 23 4 0 17 8 28 18 10 10 30 25 44 35 41 28 147 136 177 181 15 22
31 43 34 46 9 6 62 112 84 165 51 126 75 349 51 485 -14 77 -52 189 -90 265
-22 44 -42 82 -45 85 -3 3 -19 24 -34 46 -41 61 -144 160 -222 214 -183 126
-447 183 -669 144z"/>
</g>
</svg>
